<?xml version="1.0" encoding="utf-8"?>
<!-- Generator: Adobe Illustrator 24.3.0, SVG Export Plug-In . SVG Version: 6.00 Build 0)  -->
<svg version="1.1" id="Layer_1" xmlns="http://www.w3.org/2000/svg" xmlns:xlink="http://www.w3.org/1999/xlink" x="0px" y="0px"
	 viewBox="0 0 700 700" style="enable-background:new 0 0 700 700;" xml:space="preserve">
<style type="text/css">
	.st0{fill:#FFFFFF;}
</style>
<g transform="translate(0.000000,700.000000) scale(0.100000,-0.100000)">
	<g>
		<path d="M3500,24.6c1908.5,0,3455.6,1556,3455.6,3475.4S5408.5,6975.4,3500,6975.4c-1908.5,0-3455.7-1556-3455.7-3475.4
			S1591.5,24.6,3500,24.6z"/>
		<path class="st0" d="M3614,1272.2c56.1,18.2,124.7,67.5,161.4,115.8c44.6,59.2,1608,2950.3,1628.6,3011.8
			c9.3,27.9,18.9,75.6,21.4,105.9c16.5,206.3-131.9,407.5-336.5,456.1c-71.9,17.4-3098.6,16.7-3170.6-0.3
			c-149.7-35.5-266.9-148-319.7-306c-21.4-63.9-19.1-184.3,4.8-253.4c20.8-60.3,1583.6-2951.8,1627.7-3011.6
			c85.6-115.9,241.5-164.4,383-118.5L3614,1272.2z M2623.5,3163.9l-723.4,1371.4c-0.1,46.9,21.4,82.3,62.7,103.4l33.3,17h1354.5
			l-1.9-2829C3347.6,1826.9,3021.3,2428.6,2623.5,3163.9L2623.5,3163.9z M3665.6,3247.5v1408.3h1347l33.3-17
			c41.3-21.1,62.8-56.6,62.7-103.4c-0.1-31.6-62.6-150.1-718.8-1362.3l-721.5-1330.8C3666.8,1840.6,3665.6,2472.9,3665.6,3247.5
			L3665.6,3247.5z"/>
	</g>
</g>
</svg>
