<?xml version="1.0" encoding="utf-8"?>
<!-- Generator: Adobe Illustrator 24.3.0, SVG Export Plug-In . SVG Version: 6.00 Build 0)  -->
<svg version="1.1" id="Layer_1" xmlns="http://www.w3.org/2000/svg" xmlns:xlink="http://www.w3.org/1999/xlink" x="0px" y="0px"
	 viewBox="0 0 700 700" style="enable-background:new 0 0 700 700;" xml:space="preserve">
<g transform="translate(0.000000,700.000000) scale(0.100000,-0.100000)">
	<g>
		<path d="M3350.6,4655.7l-1.9-2828.9c-1.1,0.1-327.4,601.8-725.2,1337v0.1l-723.4,1371.4c-0.1,46.9,21.4,82.3,62.7,103.4l33.3,17
			H3350.6z"/>
		<path d="M5108.6,4535.4c0-31.7-62.5-150.1-718.8-1362.3l-721.5-1330.8c-1.5-1.7-2.7,630.6-2.7,1405.2v1408.3h1347l33.3-17
			C5087.2,4617.6,5108.7,4582.2,5108.6,4535.4z"/>
		<path d="M3500,6975.4c-1908.5,0-3455.7-1556-3455.7-3475.4S1591.5,24.6,3500,24.6s3455.7,1556,3455.7,3475.4
			S5408.5,6975.4,3500,6975.4z M5425.4,4505.7c-2.4-30.3-12-78-21.4-105.9c-20.6-61.4-1584-2952.6-1628.6-3011.8
			c-36.7-48.3-105.3-97.5-161.4-115.8l0.1-0.3c-141.5-45.9-297.4,2.7-383,118.5c-44.2,59.9-1606.9,2951.3-1627.7,3011.7
			c-23.9,69.1-26.2,189.4-4.8,253.4c52.8,158,170,270.5,319.7,306c72,17.1,3098.7,17.7,3170.6,0.3
			C5293.5,4913.2,5441.9,4712,5425.4,4505.7z"/>
	</g>
</g>
</svg>
