<svg width="12" height="12" viewBox="0 0 12 12" fill="none" xmlns="http://www.w3.org/2000/svg">
<path d="M10.375 1.5H9.25V0.28125C9.25 0.126563 9.12344 0 8.96875 0H8.03125C7.87656 0 7.75 0.126563 7.75 0.28125V1.5H4.75V0.28125C4.75 0.126563 4.62344 0 4.46875 0H3.53125C3.37656 0 3.25 0.126563 3.25 0.28125V1.5H2.125C1.50391 1.5 1 2.00391 1 2.625V10.875C1 11.4961 1.50391 12 2.125 12H10.375C10.9961 12 11.5 11.4961 11.5 10.875V2.625C11.5 2.00391 10.9961 1.5 10.375 1.5ZM10.2344 10.875H2.26562C2.18828 10.875 2.125 10.8117 2.125 10.7344V3.75H10.375V10.7344C10.375 10.8117 10.3117 10.875 10.2344 10.875Z" fill="#FFFFFF"/>
</svg>
