<svg width="12" height="12" viewBox="0 0 12 12" fill="none" xmlns="http://www.w3.org/2000/svg">
<g clip-path="url(#clip0)">
<path d="M7.65449 4.34462C9.05481 5.7464 9.03559 7.9938 7.66293 9.37408C7.66035 9.37689 7.6573 9.37994 7.65449 9.38275L6.07949 10.9577C4.69035 12.3469 2.4303 12.3467 1.04137 10.9577C-0.347773 9.56884 -0.347773 7.30853 1.04137 5.91962L1.91104 5.04995C2.14166 4.81933 2.53884 4.97261 2.55074 5.29853C2.56593 5.71389 2.64041 6.13119 2.77785 6.53418C2.8244 6.67063 2.79114 6.82157 2.68919 6.92352L2.38246 7.23025C1.7256 7.88711 1.705 8.95666 2.35539 9.61994C3.0122 10.2898 4.09178 10.2937 4.75363 9.63189L6.32863 8.05712C6.98936 7.3964 6.98659 6.32844 6.32863 5.67048C6.24189 5.58391 6.15452 5.51664 6.08627 5.46965C6.03798 5.43649 5.99812 5.39251 5.96985 5.34121C5.94158 5.28992 5.92569 5.23272 5.92345 5.17419C5.91416 4.92653 6.00191 4.67132 6.19762 4.47562L6.69107 3.98214C6.82047 3.85274 7.02346 3.83685 7.17351 3.94157C7.34534 4.06156 7.50629 4.19643 7.65449 4.34462ZM10.9577 1.0413C9.56873 -0.347656 7.30867 -0.347844 5.91953 1.0413L4.34453 2.6163C4.34172 2.61911 4.33867 2.62216 4.33609 2.62497C2.96345 4.00525 2.94421 6.25265 4.34453 7.65442C4.49272 7.80261 4.65366 7.93747 4.82549 8.05745C4.97554 8.16217 5.17856 8.14626 5.30793 8.01688L5.80138 7.52341C5.99709 7.3277 6.08484 7.07249 6.07555 6.82483C6.07331 6.7663 6.05742 6.70911 6.02915 6.65781C6.00088 6.60651 5.96102 6.56253 5.91273 6.52937C5.84448 6.48238 5.75711 6.41512 5.67037 6.32854C5.01241 5.67058 5.00964 4.60262 5.67037 3.9419L7.24537 2.36713C7.90722 1.70528 8.98677 1.70927 9.64361 2.37909C10.294 3.04237 10.2734 4.11191 9.61654 4.76877L9.30981 5.0755C9.20786 5.17745 9.1746 5.32839 9.22115 5.46484C9.35859 5.86783 9.43307 6.28513 9.44826 6.70049C9.46019 7.02641 9.85734 7.17969 10.088 6.94907L10.9576 6.0794C12.3468 4.69051 12.3468 2.4302 10.9577 1.0413Z" fill="#297181"/>
</g>
<defs>
<clipPath id="clip0">
<rect width="12" height="12" fill="white"/>
</clipPath>
</defs>
</svg>
