<svg width="12" height="12" viewBox="0 0 12 12" fill="none" xmlns="http://www.w3.org/2000/svg">
<path d="M11.89 1.98492L10.8749 0.969609C10.7343 0.828984 10.5435 0.75 10.3446 0.75H6.74994V0.375C6.74994 0.167812 6.58213 0 6.37494 0H5.62494C5.41775 0 5.24994 0.167812 5.24994 0.375V0.75H1.31244C1.00189 0.75 0.749941 1.00195 0.749941 1.3125V3.1875C0.749941 3.49805 1.00189 3.75 1.31244 3.75H10.3446C10.5435 3.75 10.7341 3.67102 10.8749 3.53039L11.89 2.51531C12.0365 2.36859 12.0365 2.13141 11.89 1.98492ZM5.24994 11.625C5.24994 11.8322 5.41775 12 5.62494 12H6.37494C6.58213 12 6.74994 11.8322 6.74994 11.625V9H5.24994V11.625ZM10.6874 5.25H6.74994V4.5H5.24994V5.25H1.65533C1.45635 5.25 1.2658 5.32898 1.12494 5.46961L0.109863 6.48492C-0.0366211 6.63141 -0.0366211 6.86883 0.109863 7.01531L1.12494 8.03039C1.26557 8.17102 1.45635 8.25 1.65533 8.25H10.6874C10.998 8.25 11.2499 7.99805 11.2499 7.6875V5.8125C11.2499 5.50195 10.998 5.25 10.6874 5.25Z" fill="#FFFFFF"/>
</svg>
