<svg width="12" height="12" viewBox="0 0 12 12" fill="none" xmlns="http://www.w3.org/2000/svg">
<path d="M10.1146 1L12 4.33333H9.89375L8.45208 1H10.1146ZM7.44792 1L8.88958 4.33333H3.11042L4.55208 1H7.44792ZM1.88542 1H3.54792L2.10625 4.33333H0L1.88542 1ZM0 5H2.09792L4.66042 10.2438C4.69167 10.3083 4.60417 10.3667 4.55625 10.3125L0 5ZM3.0875 5H8.9125L6.05833 11.6292C6.0375 11.6792 5.96458 11.6792 5.94375 11.6292L3.0875 5ZM7.33958 10.2438L9.90208 5H12L7.44375 10.3104C7.39583 10.3667 7.30833 10.3083 7.33958 10.2438Z" fill="#297181"/>
</svg>
