<svg width="12" height="12" viewBox="0 0 12 12" fill="none" xmlns="http://www.w3.org/2000/svg">
<path d="M1.88542 1L0 4.33333H2.10625L3.54792 1H1.88542ZM4.55208 1L3.11042 4.33333H8.88958L7.44792 1H4.55208ZM10.1146 1H8.45208L9.89375 4.33333H12L10.1146 1ZM12 5H9.90208L7.33958 10.2438C7.30833 10.3083 7.39583 10.3667 7.44375 10.3125L12 5ZM8.9125 5H3.0875L5.94167 11.6292C5.9625 11.6792 6.03542 11.6792 6.05625 11.6292L8.9125 5ZM4.66042 10.2438L2.09792 5H0L4.55625 10.3104C4.60417 10.3667 4.69167 10.3083 4.66042 10.2438Z" fill="#00A0E3"/>
</svg>
