<svg width="12" height="12" viewBox="0 0 12 12" fill="none" xmlns="http://www.w3.org/2000/svg">
<path d="M5.8125 0.1875C2.60227 0.1875 0 2.78977 0 6C0 9.21023 2.60227 11.8125 5.8125 11.8125C9.02273 11.8125 11.625 9.21023 11.625 6C11.625 2.78977 9.02273 0.1875 5.8125 0.1875ZM9.5625 5.23828V5.4007C9.5625 5.53828 9.48469 5.66414 9.36164 5.72555L9.00094 5.90602C8.94366 5.93468 8.87981 5.94768 8.81588 5.94369C8.75195 5.93969 8.69022 5.91885 8.63695 5.88328L8.21016 5.59875C8.16411 5.56808 8.11168 5.54833 8.05686 5.54097C8.00203 5.53362 7.94624 5.53887 7.89375 5.55633L7.83164 5.57695C7.6043 5.65266 7.51148 5.92359 7.64437 6.12305L7.95469 6.58852C8.02195 6.68953 8.13539 6.75023 8.2568 6.75023H8.44922C8.64984 6.75023 8.8125 6.91289 8.8125 7.11352V7.3793C8.8125 7.45781 8.78695 7.53445 8.73984 7.59727L8.30062 8.18273C8.26734 8.22727 8.24461 8.27883 8.2343 8.33344L8.13352 8.86852C8.11898 8.94563 8.07984 9.01594 8.02195 9.06914C7.79984 9.27254 7.6031 9.50201 7.43602 9.75258L7.13062 10.2108C7.07123 10.2999 6.99076 10.3729 6.89635 10.4235C6.80195 10.474 6.69653 10.5005 6.58945 10.5005C6.34312 10.5005 6.11789 10.3612 6.00773 10.1409C5.87933 9.88413 5.81249 9.60095 5.8125 9.31383V8.61328C5.8125 8.41266 5.64984 8.25 5.44922 8.25H4.84266C4.50305 8.25 4.1775 8.115 3.93727 7.875C3.69721 7.63483 3.56233 7.30918 3.56227 6.96961V6.64008C3.56227 6.23719 3.75211 5.85773 4.07438 5.61586L4.72078 5.13094C4.94244 4.96472 5.21201 4.87484 5.48906 4.87477H5.50992C5.70867 4.87477 5.90484 4.92094 6.0825 5.01L6.4275 5.1825C6.51375 5.22563 6.61336 5.23266 6.70477 5.20219L7.81359 4.83258C7.96195 4.78312 8.06203 4.64438 8.06203 4.48805C8.06203 4.28742 7.89938 4.12477 7.69875 4.12477H7.46227C7.36594 4.12477 7.27359 4.08656 7.20539 4.01836L7.0432 3.85617C7.00948 3.82243 6.96943 3.79567 6.92535 3.77741C6.88128 3.75915 6.83404 3.74976 6.78633 3.74977H4.67578C4.47516 3.74977 4.3125 3.58711 4.3125 3.38648V3.28336C4.3125 3.11672 4.42594 2.97141 4.58766 2.93086L4.92633 2.84625C5.01398 2.82422 5.09039 2.77055 5.14055 2.69531L5.32992 2.41148C5.39719 2.31047 5.51062 2.24977 5.63203 2.24977H6.19945C6.40008 2.24977 6.56273 2.08711 6.56273 1.88648V1.37789C8.41945 1.67883 9.91078 3.07078 10.3577 4.875H9.92578C9.72516 4.875 9.5625 5.03766 9.5625 5.23828Z" fill="#FFFFFF"/>
</svg>
