<svg width="40" height="40" viewBox="0 0 40 40" fill="none" xmlns="http://www.w3.org/2000/svg">
<g clip-path="url(#clip0)">
<path d="M19.8864 40C30.8693 40 39.7727 31.0457 39.7727 20C39.7727 8.95431 30.8693 0 19.8864 0C8.90343 0 0 8.95431 0 20C0 31.0457 8.90343 40 19.8864 40Z" fill="url(#paint0_linear)"/>
<path d="M20.5424 32.8203C20.8655 32.7153 21.26 32.432 21.4713 32.1537C21.7281 31.8133 30.725 15.1753 30.8435 14.8217C30.8972 14.6612 30.9524 14.3867 30.9665 14.2122C31.0613 13.025 30.2072 11.8672 29.0301 11.5875C28.6164 11.4875 11.1986 11.4912 10.7843 11.5895C9.92258 11.794 9.2481 12.4412 8.94433 13.3505C8.82137 13.7185 8.83446 14.411 8.97184 14.8088C9.09182 15.156 18.0848 31.7955 18.3387 32.14C18.8313 32.8067 19.7287 33.0862 20.5427 32.822L20.5424 32.8203ZM14.8421 21.9343L10.6793 14.042C10.6789 13.7723 10.8025 13.5683 11.0402 13.447L11.2318 13.349H19.0264L19.0156 29.629C19.0096 29.6282 17.1314 26.1657 14.8421 21.9345V21.9343ZM20.8395 21.4533V13.3488H28.5911L28.7826 13.4468C29.0203 13.5685 29.1439 13.7723 29.1436 14.0418C29.1432 14.2238 28.7836 14.9055 25.0069 21.8812L20.8549 29.5395C20.8463 29.5495 20.8394 25.9107 20.8394 21.4532L20.8395 21.4533Z" fill="white"/>
</g>
<defs>
<linearGradient id="paint0_linear" x1="26.5284" y1="6.68" x2="16.4891" y2="29.9586" gradientUnits="userSpaceOnUse">
<stop stop-color="#37AEE2"/>
<stop offset="1" stop-color="#1E96C8"/>
</linearGradient>
<clipPath id="clip0">
<rect width="39.7727" height="40" fill="white"/>
</clipPath>
</defs>
</svg>
