<svg width="12" height="12" viewBox="0 0 12 12" fill="none" xmlns="http://www.w3.org/2000/svg">
<path d="M0 3.93757V3.56257C0 3.25191 0.251836 3.00007 0.5625 3.00007H9V1.87507C9 1.37428 9.60701 1.12409 9.96026 1.47731L11.8353 3.35231C12.0549 3.57199 12.0549 3.92815 11.8353 4.1478L9.96026 6.0228C9.60834 6.37465 9 6.12794 9 5.62507V4.50007H0.5625C0.251836 4.50007 0 4.24823 0 3.93757ZM11.4375 7.50007H3V6.37507C3 5.87552 2.39386 5.62319 2.03974 5.97731L0.164742 7.85231C-0.0549141 8.07199 -0.0549141 8.42815 0.164742 8.6478L2.03974 10.5228C2.39196 10.875 3 10.6275 3 10.1251V9.00007H11.4375C11.7482 9.00007 12 8.74823 12 8.43757V8.06257C12 7.7519 11.7482 7.50007 11.4375 7.50007Z" fill="#297181"/>
</svg>
