<svg width="12" height="12" viewBox="0 0 12 12" fill="none" xmlns="http://www.w3.org/2000/svg">
<path d="M0 3.93751V3.56251C0 3.25185 0.251836 3.00001 0.5625 3.00001H9V1.87501C9 1.37422 9.60701 1.12403 9.96026 1.47725L11.8353 3.35225C12.0549 3.57193 12.0549 3.92809 11.8353 4.14774L9.96026 6.02274C9.60834 6.37459 9 6.12788 9 5.62501V4.50001H0.5625C0.251836 4.50001 0 4.24817 0 3.93751ZM11.4375 7.50001H3V6.37501C3 5.87546 2.39386 5.62313 2.03974 5.97725L0.164742 7.85225C-0.0549141 8.07193 -0.0549141 8.42808 0.164742 8.64774L2.03974 10.5227C2.39196 10.8749 3 10.6274 3 10.125V9.00001H11.4375C11.7482 9.00001 12 8.74817 12 8.43751V8.06251C12 7.75184 11.7482 7.50001 11.4375 7.50001Z" fill="#333333"/>
</svg>
